# xmcd
#
# Track frame offsets:
#	187
#	18167
#	34507
#	49614
#	63249
#	77744
#	97094
#	109682
#
# Disc length: 1691 seconds
#
# Revision: 3
# Processed by: cddbd v1.5.2PL0 Copyright (c) Steve Scherf et al.
# Submitted via: EZCDAudioConverter 6.0.5.1
#
DISCID=57069908
DTITLE=Ronnie Milsap - It Was Almost Like A Song
DYEAR=1977
DGENRE=Country
TTITLE0=What A Difference You Made In My Life
TTITLE1=It Was Almost Like A Song
TTITLE2=Selfish
TTITLE3=Long Distance Memory
TTITLE4=Here In Love
TTITLE5=The Future Is Not What It Used To Be
TTITLE6=It Don't Hurt To Dream
TTITLE7=Crystal Fallin' Rain
EXTD=
EXTT0=
EXTT1=
EXTT2=
EXTT3=
EXTT4=
EXTT5=
EXTT6=
EXTT7=
PLAYORDER=
